<svg width="16" height="16" viewBox="0 0 16 16" fill="none" xmlns="http://www.w3.org/2000/svg">
<path d="M14.9626 8.0966C14.9626 7.53524 14.914 6.99546 14.8238 6.47728H7.63403V9.53959H11.7425C11.5655 10.5292 11.0277 11.3676 10.2192 11.929V13.9154H12.6863C14.1298 12.5371 14.9626 10.5076 14.9626 8.0966Z" fill="#4285F4"/>
<path d="M7.63398 15.8334C9.69514 15.8334 11.4232 15.1245 12.6863 13.9154L10.2191 11.929C9.53552 12.404 8.66109 12.6847 7.63398 12.6847C5.64568 12.6847 3.96275 11.2921 3.36244 9.42085H0.812012V11.472C2.06814 14.0593 4.6498 15.8334 7.63398 15.8334Z" fill="#34A853"/>
<path d="M3.3624 9.42084C3.20972 8.94583 3.12298 8.43845 3.12298 7.91667C3.12298 7.39489 3.20972 6.8875 3.3624 6.4125V4.36136H0.811974C0.277598 5.46455 -0.000470963 6.68211 5.98769e-07 7.91667C5.98769e-07 9.19413 0.294948 10.4032 0.811974 11.472L3.3624 9.42084Z" fill="#FBBC05"/>
<path d="M7.63398 3.14868C8.75478 3.14868 9.76107 3.54811 10.5522 4.33258L12.7418 2.06193C11.4197 0.784471 9.69167 0 7.63398 0C4.6498 0 2.06814 1.77406 0.812012 4.36137L3.36244 6.41251C3.96275 4.54129 5.64568 3.14868 7.63398 3.14868Z" fill="#EA4335"/>
</svg>
